<svg width="25" height="25" viewBox="0 0 25 25" fill="none" xmlns="http://www.w3.org/2000/svg">
<g id="vuesax/linear/message-text">
<g id="message-text">
<path id="Vector" d="M8.85419 19.7916H8.33336C4.16669 19.7916 2.08336 18.7499 2.08336 13.5416V8.33325C2.08336 4.16659 4.16669 2.08325 8.33336 2.08325H16.6667C20.8334 2.08325 22.9167 4.16659 22.9167 8.33325V13.5416C22.9167 17.7083 20.8334 19.7916 16.6667 19.7916H16.1459C15.8229 19.7916 15.5104 19.9478 15.3125 20.2083L13.75 22.2916C13.0625 23.2083 11.9375 23.2083 11.25 22.2916L9.68753 20.2083C9.52086 19.9791 9.13544 19.7916 8.85419 19.7916Z" stroke="white" stroke-width="2.04065" stroke-miterlimit="10" stroke-linecap="round" stroke-linejoin="round"/>
<path id="Vector_2" d="M7.29166 8.33325H17.7083" stroke="white" stroke-width="2.04065" stroke-linecap="round" stroke-linejoin="round"/>
<path id="Vector_3" d="M7.29166 13.5415H13.5417" stroke="white" stroke-width="2.04065" stroke-linecap="round" stroke-linejoin="round"/>
</g>
</g>
</svg>
